name D:\school\WTK\thesis\model\3dpredictsim\Results\MidTarsalJoint\Fal_s1_bCst_PF_Natali2010_ls150_MT_k150_d010_MTP_T5_ig23.mot
datacolumns 128
datarows 4
range 1.15240234 1.18697441
endheader
time	pelvis_tilt	pelvis_list	pelvis_rotation	pelvis_tx	pelvis_ty	pelvis_tz	hip_flexion_l	hip_adduction_l	hip_rotation_l	hip_flexion_r	hip_adduction_r	hip_rotation_r	knee_angle_l	knee_angle_r	ankle_angle_l	ankle_angle_r	subtalar_angle_l	subtalar_angle_r	mtj_angle_l	mtj_angle_r	mtp_angle_l	mtp_angle_r	lumbar_extension	lumbar_bending	lumbar_rotation	arm_flex_l	arm_add_l	arm_rot_l	arm_flex_r	arm_add_r	arm_rot_r	elbow_flex_l	elbow_flex_r	pro_sup_l	pro_sup_r	glut_med1_l/activation	glut_med2_l/activation	glut_med3_l/activation	glut_min1_l/activation	glut_min2_l/activation	glut_min3_l/activation	semimem_l/activation	semiten_l/activation	bifemlh_l/activation	bifemsh_l/activation	sar_l/activation	add_long_l/activation	add_brev_l/activation	add_mag1_l/activation	add_mag2_l/activation	add_mag3_l/activation	tfl_l/activation	pect_l/activation	grac_l/activation	glut_max1_l/activation	glut_max2_l/activation	glut_max3_l/activation	iliacus_l/activation	psoas_l/activation	quad_fem_l/activation	gem_l/activation	peri_l/activation	rect_fem_l/activation	vas_med_l/activation	vas_int_l/activation	vas_lat_l/activation	med_gas_l/activation	lat_gas_l/activation	soleus_l/activation	tib_post_l/activation	flex_dig_l/activation	flex_hal_l/activation	tib_ant_l/activation	per_brev_l/activation	per_long_l/activation	per_tert_l/activation	ext_dig_l/activation	ext_hal_l/activation	ercspn_l/activation	intobl_l/activation	extobl_l/activation	glut_med1_r/activation	glut_med2_r/activation	glut_med3_r/activation	glut_min1_r/activation	glut_min2_r/activation	glut_min3_r/activation	semimem_r/activation	semiten_r/activation	bifemlh_r/activation	bifemsh_r/activation	sar_r/activation	add_long_r/activation	add_brev_r/activation	add_mag1_r/activation	add_mag2_r/activation	add_mag3_r/activation	tfl_r/activation	pect_r/activation	grac_r/activation	glut_max1_r/activation	glut_max2_r/activation	glut_max3_r/activation	iliacus_r/activation	psoas_r/activation	quad_fem_r/activation	gem_r/activation	peri_r/activation	rect_fem_r/activation	vas_med_r/activation	vas_int_r/activation	vas_lat_r/activation	med_gas_r/activation	lat_gas_r/activation	soleus_r/activation	tib_post_r/activation	flex_dig_r/activation	flex_hal_r/activation	tib_ant_r/activation	per_brev_r/activation	per_long_r/activation	per_tert_r/activation	ext_dig_r/activation	ext_hal_r/activation	ercspn_r/activation	intobl_r/activation	extobl_r/activation	
          1.15240234	         -2.92939395	         -2.35585261	          5.97341237	          1.44050293	          0.91825700	         -0.00122143	        -16.04265463	         -1.69619320	          6.83351446	         28.81820867	          3.87239910	         -1.90532172	        -11.68304930	        -11.40131324	         -4.79939813	          4.13064464	         12.13367026	         -4.02928544	          7.10620768	         -0.04222199	          7.03340926	         -0.83466828	         -1.73979484	          0.61668279	         -2.10878019	          4.55897866	        -13.46855472	         16.81485885	         -5.65525942	        -13.45018651	          6.73909173	         36.68796302	         15.64426587	         86.51662706	         86.51662706	          0.26414270	          0.08610493	          0.06751929	          0.25608656	          0.17826641	          0.09260643	          0.05002892	          0.05000448	          0.05000554	          0.05000365	          0.09485730	          0.10391421	          0.07111644	          0.07077251	          0.05009652	          0.05003504	          0.26411284	          0.09431088	          0.05094254	          0.05002644	          0.05001656	          0.05001954	          0.33706126	          0.53666475	          0.06767241	          0.05977548	          0.05960769	          0.20388005	          0.05009337	          0.16439755	          0.15073461	          0.24366498	          0.33373279	          0.32002112	          0.21762593	          0.18902921	          0.25823127	          0.05000037	          0.05001361	          0.16302442	          0.05000152	          0.05000038	          0.05000189	          0.05000086	          0.07129604	          0.06459443	          0.05000237	          0.05000146	          0.05000384	          0.05000956	          0.05000551	          0.05000225	          0.07579181	          0.05000426	          0.16672434	          0.05000343	          0.05006960	          0.10101928	          0.23957258	          0.29213764	          0.18259901	          0.08504653	          0.05000193	          0.07105446	          0.11086079	          0.05000983	          0.05547278	          0.12387656	          0.06340268	          0.05966540	          0.54916793	          0.20388310	          0.16261497	          0.07106299	          0.19185918	          0.19231458	          0.16369191	          0.05000021	          0.05000050	          0.05000008	          0.05096699	          0.05001928	          0.05003775	          0.53620492	          0.20269419	          0.19553662	          0.27893161	          0.48286121	          0.07033648	          0.05000025	          0.10484432	          0.09019659	
          1.16392636	         -2.92489010	         -2.44156719	          6.20628584	          1.45823768	          0.91729086	         -0.00105781	        -15.92522442	         -1.99889660	          6.64496818	         28.02100766	          4.18832264	         -1.65086599	        -13.53858980	        -11.75719794	         -5.43253393	          3.55791001	         13.07412249	         -4.43290280	          5.68485268	         -0.23894636	          9.10055256	         -0.84638491	         -1.52137638	          0.82589559	         -2.17753493	          4.17855796	        -13.47990827	         17.06960416	         -6.58604341	        -13.45622844	          6.52422158	         37.84834753	         15.30641557	         86.51662706	         86.51662706	          0.34161677	          0.07223195	          0.05664180	          0.21482822	          0.14954504	          0.07768617	          0.05002855	          0.05000978	          0.05000755	          0.05000256	          0.07957743	          0.12468271	          0.05966660	          0.05960720	          0.05958861	          0.05958812	          0.22156214	          0.08137086	          0.05065263	          0.05021646	          0.05059672	          0.05959272	          0.28277382	          0.51780751	          0.05960241	          0.05015205	          0.05000428	          0.17103098	          0.06609807	          0.13791217	          0.12645002	          0.20440552	          0.27996169	          0.26845906	          0.18256235	          0.15857425	          0.21662620	          0.05000108	          0.05001205	          0.20285845	          0.05000269	          0.05000657	          0.05000402	          0.05328421	          0.05980882	          0.05960687	          0.23750794	          0.23162329	          0.05000354	          0.05000180	          0.05000228	          0.27043233	          0.08882907	          0.08184344	          0.14942846	          0.05000271	          0.05000994	          0.08474387	          0.20097426	          0.24506979	          0.15318182	          0.10957747	          0.05000647	          0.05963115	          0.09304223	          0.05000588	          0.05000991	          0.10392067	          0.05318995	          0.05005332	          0.46068589	          0.17103420	          0.19915728	          0.05961339	          0.16094756	          0.16132964	          0.13731847	          0.05870771	          0.05955658	          0.05928687	          0.05000132	          0.05000660	          0.05000658	          0.52939979	          0.32161592	          0.16403276	          0.28405547	          0.52472620	          0.05900404	          0.05000024	          0.11570307	          0.07566411	
          1.17545039	         -2.91819735	         -2.53046991	          6.40189762	          1.47613435	          0.91638887	         -0.00089248	        -15.72081341	         -2.29592186	          6.45995826	         27.11967205	          4.45135022	         -1.38284683	        -15.50476433	        -12.09450456	         -6.18063096	          3.00829965	         13.95166192	         -4.83709643	          4.06033068	         -0.26617019	         11.28813780	         -0.78861502	         -1.29824517	          1.04731123	         -2.23619410	          3.73608303	        -13.49319377	         17.25208868	         -7.50557646	        -13.46773406	          6.38110798	         38.98939200	         14.99169543	         86.51662706	         86.51662706	          0.30456505	          0.06059422	          0.05000092	          0.30824917	          0.12545159	          0.06517007	          0.05002481	          0.05000194	          0.05000168	          0.05000391	          0.06677851	          0.10460210	          0.05005508	          0.05000711	          0.05000845	          0.05000420	          0.18587459	          0.06874884	          0.05000614	          0.05001254	          0.05000695	          0.05000437	          0.23721481	          0.48193389	          0.05000120	          0.05000541	          0.05000425	          0.14347498	          0.07718223	          0.12034560	          0.12035194	          0.17147155	          0.23485418	          0.22520471	          0.15314817	          0.13302600	          0.18172427	          0.09306802	          0.14338910	          0.17120325	          0.05000849	          0.12399139	          0.05001486	          0.07118207	          0.05017242	          0.05000313	          0.33837832	          0.32318698	          0.27517535	          0.15223537	          0.23421637	          0.22686383	          0.07451755	          0.08000245	          0.12535290	          0.07105132	          0.05001305	          0.07109029	          0.16859355	          0.20558632	          0.12850725	          0.14233421	          0.05000471	          0.05002812	          0.07805710	          0.20309737	          0.15323859	          0.12203314	          0.05000085	          0.05000103	          0.38646031	          0.14347810	          0.16707069	          0.05000876	          0.13502607	          0.14652177	          0.11519984	          0.05000079	          0.05000133	          0.05000022	          0.05000037	          0.05000136	          0.05000161	          0.59684680	          0.30061011	          0.16439936	          0.54966309	          0.55139272	          0.23464788	          0.07160826	          0.09706126	          0.06347314	
          1.18697441	         -2.90962926	         -2.61114806	          6.56028786	          1.49396799	          0.91561618	         -0.00069232	        -15.38584990	         -2.57089556	          6.28651385	         26.24999745	          4.71305350	         -1.12444078	        -17.62890900	        -12.49414603	         -7.02660351	          2.51398525	         14.75455503	         -5.25417312	          2.27665521	         -0.29261566	         13.36864230	         -0.76661986	         -1.08988074	          1.26652888	         -2.28617682	          3.27910890	        -13.51244866	         17.39809913	         -8.36875502	        -13.47712991	          6.30591699	         40.06925455	         14.67787920	         86.51662706	         86.51662706	          0.25549597	          0.05083173	          0.05000080	          0.25858574	          0.10523974	          0.05467067	          0.05001453	          0.05000204	          0.05000224	          0.05000106	          0.05602270	          0.13956801	          0.07905303	          0.05002348	          0.05007987	          0.10511389	          0.15592891	          0.05779190	          0.05000465	          0.05002217	          0.05001520	          0.05000978	          0.19899502	          0.43847111	          0.05000148	          0.05000489	          0.05000111	          0.12035832	          0.10065658	          0.10096043	          0.10096292	          0.14384394	          0.19701443	          0.18891953	          0.12847326	          0.11159420	          0.15244580	          0.17245249	          0.13370709	          0.14362214	          0.21238000	          0.18838647	          0.05001744	          0.09854496	          0.05000028	          0.05000049	          0.43103324	          0.43250224	          0.42867950	          0.25641580	          0.19652012	          0.34975376	          0.07433054	          0.09111003	          0.10649974	          0.05960500	          0.05000441	          0.05963753	          0.14143433	          0.17866295	          0.20043391	          0.16871981	          0.05000322	          0.05016336	          0.08524092	          0.26994715	          0.20307857	          0.16947175	          0.05000161	          0.05000138	          0.32419407	          0.12036215	          0.22400238	          0.05000076	          0.22322293	          0.23064385	          0.18708655	          0.05000058	          0.05000134	          0.05000029	          0.08483706	          0.05004529	          0.05001256	          0.69413263	          0.25217581	          0.13791134	          0.46110262	          0.55222425	          0.28246796	          0.09246395	          0.08142279	          0.05324647	
